# xmcd
#
# Track frame offsets:
#	150
#	18294
#	37373
#	55383
#	73033
#	83257
#	96562
#	110145
#	124832
#	142604
#	157269
#	181916
#	194757
#	207382
#	217023
#	230857
#	241589
#
# Disc length: 3444 seconds
#
# Revision: 0
# Processed by: cddbd v1.5.2PL0 Copyright (c) Steve Scherf et al.
# Submitted via: dBpowerAMP V4.0
#
DISCID=020d7211
DTITLE=Marvin Gaye - Marvin Gaye's # 1s
DYEAR=1900
DGENRE=Soul
TTITLE0=Marvin Gaye - Let's get it on
TTITLE1=Marvin Gaye - Got to give it up (part 1)
TTITLE2=Marvin Gaye - Sexual Healing
TTITLE3=Marvin Gaye - What's going on
TTITLE4=Marvin Gaye and Tammi Terrell - Ain't Nothing Like the real Thing
TTITLE5=Marvin Gaye - Too Busy Thinking About My Baby
TTITLE6=Marvin Gaye - Ain't That Particular
TTITLE7=Marvin Gaye - I Heard it Through the Grapevine
TTITLE8=Marvin Gaye - I want You
TTITLE9=Marvin Gaye - Mercy, Mercy Me The Ecology
TTITLE10=Marvin Gaye - Inner City Blues (Make Me Wanna Hollar)
TTITLE11=Marvin Gaye and Tammi Terrell - You're All I need to get by
TTITLE12=Marvin Gaye - I'll Be Doggone
TTITLE13=Marvin Gaye - Pride and Joy
TTITLE14=Marvin Gaye and Tammi Terrell - Your Precious Love
TTITLE15=Marvin Gaye and Tammi Terrell - If I could Build My Whole World Around You
TTITLE16=Marvin Gaye - That's the way Love is
EXTD=Windows Media picks up some CDs. Why Not You?
EXTT0=
EXTT1=
EXTT2=
EXTT3=
EXTT4=
EXTT5=
EXTT6=
EXTT7=
EXTT8=
EXTT9=
EXTT10=
EXTT11=
EXTT12=
EXTT13=
EXTT14=
EXTT15=
EXTT16=
PLAYORDER=
